<svg data-v-423bf9ae="" xmlns="http://www.w3.org/2000/svg" viewBox="0 0 369.1181111302347 60" class="font"><!----><!----><!----><g data-v-423bf9ae="" id="5443f144-4336-447e-a02d-b86c5dc9293e" fill="white" transform="matrix(4.724409103393555,0,0,4.724409103393555,-2.7874038219451904,-23.999998092651367)"><path d="M4.16 5.24L4.16 5.52L4.16 5.52Q3.65 5.54 3.42 5.63L3.42 5.63L3.42 5.63Q3.19 5.71 3.11 5.95L3.11 5.95L3.11 5.95Q3.02 6.19 3.02 6.72L3.02 6.72L3.02 13.66L3.02 13.66Q3.02 14.20 3.11 14.43L3.11 14.43L3.11 14.43Q3.19 14.67 3.42 14.75L3.42 14.75L3.42 14.75Q3.65 14.83 4.16 14.83L4.16 14.83L5.18 14.83L5.18 14.83Q6.05 14.83 6.50 14.58L6.50 14.58L6.50 14.58Q6.96 14.34 7.17 13.79L7.17 13.79L7.17 13.79Q7.38 13.24 7.48 12.21L7.48 12.21L7.80 12.21L7.80 12.21Q7.76 12.64 7.76 13.36L7.76 13.36L7.76 13.36Q7.76 14.15 7.85 15.15L7.85 15.15L7.85 15.15Q6.90 15.11 4.65 15.11L4.65 15.11L4.65 15.11Q1.96 15.11 0.59 15.15L0.59 15.15L0.59 14.87L0.59 14.87Q1.09 14.84 1.32 14.76L1.32 14.76L1.32 14.76Q1.55 14.67 1.64 14.43L1.64 14.43L1.64 14.43Q1.72 14.20 1.72 13.66L1.72 13.66L1.72 6.72L1.72 6.72Q1.72 6.19 1.64 5.95L1.64 5.95L1.64 5.95Q1.55 5.71 1.32 5.63L1.32 5.63L1.32 5.63Q1.09 5.54 0.59 5.52L0.59 5.52L0.59 5.24L0.59 5.24Q1.18 5.28 2.38 5.28L2.38 5.28L2.38 5.28Q3.50 5.28 4.16 5.24L4.16 5.24ZM14.43 13.36L14.71 13.47L14.71 13.47Q14.46 14.24 13.77 14.79L13.77 14.79L13.77 14.79Q13.08 15.34 12.10 15.34L12.10 15.34L12.10 15.34Q11.10 15.34 10.37 14.89L10.37 14.89L10.37 14.89Q9.65 14.43 9.26 13.62L9.26 13.62L9.26 13.62Q8.88 12.80 8.88 11.72L8.88 11.72L8.88 11.72Q8.88 10.50 9.27 9.60L9.27 9.60L9.27 9.60Q9.66 8.71 10.37 8.22L10.37 8.22L10.37 8.22Q11.09 7.74 12.04 7.74L12.04 7.74L12.04 7.74Q13.30 7.74 13.98 8.50L13.98 8.50L13.98 8.50Q14.66 9.27 14.66 10.82L14.66 10.82L10.28 10.82L10.28 10.82Q10.23 11.21 10.23 11.72L10.23 11.72L10.23 11.72Q10.23 12.64 10.54 13.33L10.54 13.33L10.54 13.33Q10.84 14.01 11.33 14.38L11.33 14.38L11.33 14.38Q11.83 14.76 12.38 14.76L12.38 14.76L12.38 14.76Q13.05 14.76 13.57 14.43L13.57 14.43L13.57 14.43Q14.08 14.11 14.43 13.36L14.43 13.36ZM11.98 8.01L11.98 8.01Q11.33 8.01 10.85 8.65L10.85 8.65L10.85 8.65Q10.37 9.30 10.26 10.56L10.26 10.56L13.31 10.56L13.31 10.56Q13.34 9.46 13.00 8.74L13.00 8.74L13.00 8.74Q12.66 8.01 11.98 8.01L11.98 8.01ZM18.23 7.74L18.23 7.74Q18.73 7.74 19.12 7.90L19.12 7.90L19.12 7.90Q19.52 8.05 19.75 8.26L19.75 8.26L19.75 8.26Q19.91 8.37 20.01 8.37L20.01 8.37L20.01 8.37Q20.26 8.37 20.31 7.76L20.31 7.76L20.64 7.76L20.64 7.76Q20.58 8.44 20.58 10.14L20.58 10.14L20.26 10.14L20.26 10.14Q20.10 9.21 19.66 8.61L19.66 8.61L19.66 8.61Q19.22 8.01 18.35 8.01L18.35 8.01L18.35 8.01Q17.85 8.01 17.53 8.29L17.53 8.29L17.53 8.29Q17.21 8.58 17.21 9.09L17.21 9.09L17.21 9.09Q17.21 9.58 17.54 9.90L17.54 9.90L17.54 9.90Q17.88 10.23 18.62 10.70L18.62 10.70L18.62 10.70Q18.75 10.77 19.00 10.93L19.00 10.93L19.00 10.93Q19.64 11.35 20.03 11.68L20.03 11.68L20.03 11.68Q20.43 12.00 20.67 12.42L20.67 12.42L20.67 12.42Q20.92 12.84 20.92 13.38L20.92 13.38L20.92 13.38Q20.92 14.31 20.22 14.83L20.22 14.83L20.22 14.83Q19.53 15.34 18.52 15.34L18.52 15.34L18.52 15.34Q17.89 15.34 17.42 15.15L17.42 15.15L17.42 15.15Q17.11 14.99 16.84 14.77L16.84 14.77L16.84 14.77Q16.79 14.71 16.72 14.71L16.72 14.71L16.72 14.71Q16.62 14.71 16.54 14.85L16.54 14.85L16.54 14.85Q16.46 14.99 16.42 15.25L16.42 15.25L16.10 15.25L16.10 15.25Q16.16 14.45 16.16 12.45L16.16 12.45L16.48 12.45L16.48 12.45Q16.63 13.76 17.04 14.41L17.04 14.41L17.04 14.41Q17.44 15.06 18.42 15.06L18.42 15.06L18.42 15.06Q18.91 15.06 19.29 14.74L19.29 14.74L19.29 14.74Q19.67 14.42 19.67 13.73L19.67 13.73L19.67 13.73Q19.67 13.19 19.30 12.81L19.30 12.81L19.30 12.81Q18.93 12.43 18.09 11.90L18.09 11.90L18.09 11.90Q17.40 11.47 17.03 11.19L17.03 11.19L17.03 11.19Q16.66 10.91 16.41 10.50L16.41 10.50L16.41 10.50Q16.16 10.09 16.16 9.55L16.16 9.55L16.16 9.55Q16.16 8.67 16.74 8.20L16.74 8.20L16.74 8.20Q17.33 7.74 18.23 7.74L18.23 7.74ZM28.64 5.08L28.64 5.08Q29.26 5.08 29.62 5.21L29.62 5.21L29.62 5.21Q29.97 5.35 30.35 5.60L30.35 5.60L30.35 5.60Q30.66 5.80 30.83 5.80L30.83 5.80L30.83 5.80Q30.95 5.80 31.02 5.65L31.02 5.65L31.02 5.65Q31.09 5.50 31.14 5.18L31.14 5.18L31.46 5.18L31.46 5.18Q31.39 5.99 31.39 8.04L31.39 8.04L31.07 8.04L31.07 8.04Q30.98 6.90 30.41 6.13L30.41 6.13L30.41 6.13Q29.85 5.35 28.77 5.35L28.77 5.35L28.77 5.35Q28.01 5.35 27.54 5.80L27.54 5.80L27.54 5.80Q27.06 6.26 27.06 6.97L27.06 6.97L27.06 6.97Q27.06 7.50 27.31 7.90L27.31 7.90L27.31 7.90Q27.55 8.29 27.93 8.57L27.93 8.57L27.93 8.57Q28.31 8.85 29.01 9.28L29.01 9.28L29.41 9.53L29.41 9.53Q30.30 10.08 30.81 10.49L30.81 10.49L30.81 10.49Q31.32 10.91 31.63 11.44L31.63 11.44L31.63 11.44Q31.93 11.97 31.93 12.68L31.93 12.68L31.93 12.68Q31.93 13.96 31.09 14.65L31.09 14.65L31.09 14.65Q30.25 15.34 28.97 15.34L28.97 15.34L28.97 15.34Q28.29 15.34 27.87 15.20L27.87 15.20L27.87 15.20Q27.44 15.06 27.05 14.83L27.05 14.83L27.05 14.83Q26.74 14.63 26.57 14.63L26.57 14.63L26.57 14.63Q26.45 14.63 26.38 14.78L26.38 14.78L26.38 14.78Q26.31 14.92 26.26 15.25L26.26 15.25L25.94 15.25L25.94 15.25Q26.00 14.48 26.00 11.89L26.00 11.89L26.32 11.89L26.32 11.89Q26.42 13.30 27.02 14.18L27.02 14.18L27.02 14.18Q27.62 15.06 28.87 15.06L28.87 15.06L28.87 15.06Q29.62 15.06 30.16 14.59L30.16 14.59L30.16 14.59Q30.69 14.13 30.69 13.20L30.69 13.20L30.69 13.20Q30.69 12.42 30.16 11.87L30.16 11.87L30.16 11.87Q29.64 11.33 28.50 10.64L28.50 10.64L28.50 10.64Q27.68 10.14 27.17 9.74L27.17 9.74L27.17 9.74Q26.66 9.35 26.33 8.80L26.33 8.80L26.33 8.80Q26.01 8.25 26.01 7.50L26.01 7.50L26.01 7.50Q26.01 6.33 26.77 5.71L26.77 5.71L26.77 5.71Q27.52 5.08 28.64 5.08L28.64 5.08ZM34.90 15.25L34.90 15.25Q34.02 15.25 33.59 14.80L33.59 14.80L33.59 14.80Q33.17 14.36 33.17 13.58L33.17 13.58L33.17 13.58Q33.17 12.95 33.51 12.54L33.51 12.54L33.51 12.54Q33.85 12.14 34.32 11.90L34.32 11.90L34.32 11.90Q34.79 11.66 35.56 11.40L35.56 11.40L35.56 11.40Q36.34 11.13 36.72 10.91L36.72 10.91L36.72 10.91Q37.10 10.68 37.10 10.30L37.10 10.30L37.10 9.44L37.10 9.44Q37.10 8.62 36.76 8.32L36.76 8.32L36.76 8.32Q36.41 8.02 35.80 8.02L35.80 8.02L35.80 8.02Q34.82 8.02 34.41 8.53L34.41 8.53L34.41 8.53Q34.69 8.60 34.88 8.82L34.88 8.82L34.88 8.82Q35.07 9.04 35.07 9.38L35.07 9.38L35.07 9.38Q35.07 9.73 34.85 9.93L34.85 9.93L34.85 9.93Q34.62 10.14 34.27 10.14L34.27 10.14L34.27 10.14Q33.88 10.14 33.68 9.89L33.68 9.89L33.68 9.89Q33.49 9.65 33.49 9.30L33.49 9.30L33.49 9.30Q33.49 8.96 33.65 8.74L33.65 8.74L33.65 8.74Q33.81 8.51 34.13 8.29L34.13 8.29L34.13 8.29Q34.47 8.05 34.99 7.90L34.99 7.90L34.99 7.90Q35.50 7.74 36.12 7.74L36.12 7.74L36.12 7.74Q37.21 7.74 37.77 8.26L37.77 8.26L37.77 8.26Q38.12 8.58 38.24 9.04L38.24 9.04L38.24 9.04Q38.36 9.49 38.36 10.23L38.36 10.23L38.36 14.13L38.36 14.13Q38.36 14.48 38.46 14.63L38.46 14.63L38.46 14.63Q38.56 14.78 38.79 14.78L38.79 14.78L38.79 14.78Q38.96 14.78 39.11 14.71L39.11 14.71L39.11 14.71Q39.26 14.63 39.42 14.49L39.42 14.49L39.58 14.73L39.58 14.73Q39.21 15.01 38.95 15.13L38.95 15.13L38.95 15.13Q38.70 15.25 38.30 15.25L38.30 15.25L38.30 15.25Q37.63 15.25 37.37 14.91L37.37 14.91L37.37 14.91Q37.10 14.57 37.10 14L37.10 14L37.10 14Q36.68 14.70 36.13 14.97L36.13 14.97L36.13 14.97Q35.59 15.25 34.90 15.25L34.90 15.25ZM35.52 14.69L35.52 14.69Q36.44 14.69 37.10 13.62L37.10 13.62L37.10 10.88L37.10 10.88Q36.97 11.07 36.75 11.20L36.75 11.20L36.75 11.20Q36.53 11.33 36.06 11.54L36.06 11.54L36.06 11.54Q35.53 11.76 35.20 11.96L35.20 11.96L35.20 11.96Q34.87 12.17 34.64 12.52L34.64 12.52L34.64 12.52Q34.40 12.87 34.40 13.41L34.40 13.41L34.40 13.41Q34.40 14.04 34.71 14.36L34.71 14.36L34.71 14.36Q35.01 14.69 35.52 14.69L35.52 14.69ZM45.33 7.98L45.33 7.98Q45.95 7.98 46.40 7.94L46.40 7.94L46.40 8.22L46.40 8.22Q46.12 8.25 45.90 8.47L45.90 8.47L45.90 8.47Q45.68 8.69 45.49 9.20L45.49 9.20L43.19 15.22L42.95 15.22L40.38 9.02L40.38 9.02Q40.17 8.54 39.97 8.39L39.97 8.39L39.97 8.39Q39.77 8.23 39.56 8.23L39.56 8.23L39.56 7.94L39.56 7.94Q40.29 7.99 40.80 7.99L40.80 7.99L40.80 7.99Q41.87 7.99 42.62 7.94L42.62 7.94L42.62 8.23L42.62 8.23Q42.10 8.23 41.86 8.31L41.86 8.31L41.86 8.31Q41.62 8.39 41.62 8.71L41.62 8.71L41.62 8.71Q41.62 8.90 41.78 9.32L41.78 9.32L43.50 13.58L45.04 9.53L45.04 9.53Q45.19 9.11 45.19 8.88L45.19 8.88L45.19 8.88Q45.19 8.55 44.95 8.41L44.95 8.41L44.95 8.41Q44.70 8.26 44.16 8.22L44.16 8.22L44.16 7.94L44.16 7.94Q44.88 7.98 45.33 7.98L45.33 7.98ZM52.29 7.98L52.29 7.98Q52.91 7.98 53.35 7.94L53.35 7.94L53.35 8.22L53.35 8.22Q53.07 8.25 52.86 8.47L52.86 8.47L52.86 8.47Q52.64 8.69 52.44 9.20L52.44 9.20L50.15 15.22L49.67 16.44L49.67 16.44Q49.41 17.12 49.07 17.42L49.07 17.42L49.07 17.42Q48.86 17.61 48.57 17.70L48.57 17.70L48.57 17.70Q48.27 17.78 47.98 17.78L47.98 17.78L47.98 17.78Q47.56 17.78 47.29 17.56L47.29 17.56L47.29 17.56Q47.03 17.33 47.03 16.94L47.03 16.94L47.03 16.94Q47.03 16.60 47.22 16.40L47.22 16.40L47.22 16.40Q47.42 16.20 47.77 16.20L47.77 16.20L47.77 16.20Q48.08 16.20 48.28 16.37L48.28 16.37L48.28 16.37Q48.48 16.55 48.48 16.86L48.48 16.86L48.48 16.86Q48.48 17.28 48.10 17.49L48.10 17.49L48.10 17.49Q48.13 17.50 48.19 17.50L48.19 17.50L48.19 17.50Q48.96 17.50 49.38 16.41L49.38 16.41L49.87 15.13L47.33 9.02L47.33 9.02Q47.10 8.54 46.86 8.39L46.86 8.39L46.86 8.39Q46.62 8.23 46.38 8.23L46.38 8.23L46.38 7.94L46.38 7.94Q46.98 8.02 47.75 8.02L47.75 8.02L47.75 8.02Q48.45 8.02 49.57 7.94L49.57 7.94L49.57 8.23L49.57 8.23Q49.07 8.23 48.84 8.32L48.84 8.32L48.84 8.32Q48.61 8.40 48.61 8.72L48.61 8.72L48.61 8.72Q48.61 9.02 48.78 9.41L48.78 9.41L50.46 13.58L52.01 9.53L52.01 9.53Q52.16 9.11 52.16 8.89L52.16 8.89L52.16 8.89Q52.16 8.57 51.91 8.41L51.91 8.41L51.91 8.41Q51.66 8.26 51.11 8.22L51.11 8.22L51.11 7.94L51.11 7.94Q51.86 7.98 52.29 7.98L52.29 7.98ZM64.55 5.24L64.55 5.24Q64.46 6.23 64.46 7.03L64.46 7.03L64.46 7.03Q64.46 7.73 64.50 8.18L64.50 8.18L64.18 8.18L64.18 8.18Q64.06 7.10 63.90 6.57L63.90 6.57L63.90 6.57Q63.73 6.05 63.31 5.80L63.31 5.80L63.31 5.80Q62.89 5.56 62.02 5.56L62.02 5.56L61.14 5.56L61.14 5.56Q60.63 5.56 60.40 5.63L60.40 5.63L60.40 5.63Q60.17 5.71 60.09 5.95L60.09 5.95L60.09 5.95Q60.00 6.19 60.00 6.72L60.00 6.72L60.00 10.16L61.03 10.16L61.03 10.16Q61.52 10.16 61.78 9.93L61.78 9.93L61.78 9.93Q62.05 9.70 62.14 9.39L62.14 9.39L62.14 9.39Q62.23 9.07 62.29 8.60L62.29 8.60L62.33 8.32L62.65 8.32L62.65 8.32Q62.61 8.90 62.61 9.63L62.61 9.63L62.61 10.30L62.61 10.30Q62.61 11.02 62.69 12.29L62.69 12.29L62.37 12.29L62.37 12.29Q62.36 12.19 62.29 11.61L62.29 11.61L62.29 11.61Q62.22 11.03 61.90 10.74L61.90 10.74L61.90 10.74Q61.59 10.44 61.03 10.44L61.03 10.44L60.00 10.44L60.00 13.66L60.00 13.66Q60.00 14.20 60.12 14.43L60.12 14.43L60.12 14.43Q60.23 14.67 60.51 14.76L60.51 14.76L60.51 14.76Q60.79 14.84 61.42 14.87L61.42 14.87L61.42 15.15L61.42 15.15Q60.69 15.11 59.36 15.11L59.36 15.11L59.36 15.11Q58.16 15.11 57.57 15.15L57.57 15.15L57.57 14.87L57.57 14.87Q58.07 14.84 58.30 14.76L58.30 14.76L58.30 14.76Q58.53 14.67 58.62 14.43L58.62 14.43L58.62 14.43Q58.70 14.20 58.70 13.66L58.70 13.66L58.70 6.72L58.70 6.72Q58.70 6.19 58.62 5.95L58.62 5.95L58.62 5.95Q58.53 5.71 58.30 5.63L58.30 5.63L58.30 5.63Q58.07 5.54 57.57 5.52L57.57 5.52L57.57 5.24L57.57 5.24Q58.94 5.28 61.63 5.28L61.63 5.28L61.63 5.28Q63.69 5.28 64.55 5.24L64.55 5.24ZM67.23 15.25L67.23 15.25Q66.35 15.25 65.92 14.80L65.92 14.80L65.92 14.80Q65.49 14.36 65.49 13.58L65.49 13.58L65.49 13.58Q65.49 12.95 65.83 12.54L65.83 12.54L65.83 12.54Q66.18 12.14 66.65 11.90L66.65 11.90L66.65 11.90Q67.12 11.66 67.89 11.40L67.89 11.40L67.89 11.40Q68.67 11.13 69.05 10.91L69.05 10.91L69.05 10.91Q69.43 10.68 69.43 10.30L69.43 10.30L69.43 9.44L69.43 9.44Q69.43 8.62 69.08 8.32L69.08 8.32L69.08 8.32Q68.74 8.02 68.12 8.02L68.12 8.02L68.12 8.02Q67.14 8.02 66.74 8.53L66.74 8.53L66.74 8.53Q67.02 8.60 67.21 8.82L67.21 8.82L67.21 8.82Q67.40 9.04 67.40 9.38L67.40 9.38L67.40 9.38Q67.40 9.73 67.17 9.93L67.17 9.93L67.17 9.93Q66.95 10.14 66.60 10.14L66.60 10.14L66.60 10.14Q66.21 10.14 66.01 9.89L66.01 9.89L66.01 9.89Q65.81 9.65 65.81 9.30L65.81 9.30L65.81 9.30Q65.81 8.96 65.97 8.74L65.97 8.74L65.97 8.74Q66.14 8.51 66.46 8.29L66.46 8.29L66.46 8.29Q66.79 8.05 67.31 7.90L67.31 7.90L67.31 7.90Q67.83 7.74 68.45 7.74L68.45 7.74L68.45 7.74Q69.54 7.74 70.10 8.26L70.10 8.26L70.10 8.26Q70.45 8.58 70.57 9.04L70.57 9.04L70.57 9.04Q70.69 9.49 70.69 10.23L70.69 10.23L70.69 14.13L70.69 14.13Q70.69 14.48 70.78 14.63L70.78 14.63L70.78 14.63Q70.88 14.78 71.12 14.78L71.12 14.78L71.12 14.78Q71.29 14.78 71.44 14.71L71.44 14.71L71.44 14.71Q71.58 14.63 71.75 14.49L71.75 14.49L71.90 14.73L71.90 14.73Q71.54 15.01 71.28 15.13L71.28 15.13L71.28 15.13Q71.02 15.25 70.63 15.25L70.63 15.25L70.63 15.25Q69.96 15.25 69.69 14.91L69.69 14.91L69.69 14.91Q69.43 14.57 69.43 14L69.43 14L69.43 14Q69.01 14.70 68.46 14.97L68.46 14.97L68.46 14.97Q67.91 15.25 67.23 15.25L67.23 15.25ZM67.84 14.69L67.84 14.69Q68.77 14.69 69.43 13.62L69.43 13.62L69.43 10.88L69.43 10.88Q69.30 11.07 69.08 11.20L69.08 11.20L69.08 11.20Q68.85 11.33 68.39 11.54L68.39 11.54L68.39 11.54Q67.86 11.76 67.53 11.96L67.53 11.96L67.53 11.96Q67.20 12.17 66.96 12.52L66.96 12.52L66.96 12.52Q66.72 12.87 66.72 13.41L66.72 13.41L66.72 13.41Q66.72 14.04 67.03 14.36L67.03 14.36L67.03 14.36Q67.34 14.69 67.84 14.69L67.84 14.69ZM77.66 7.98L77.66 7.98Q78.27 7.98 78.72 7.94L78.72 7.94L78.72 8.22L78.72 8.22Q78.44 8.25 78.22 8.47L78.22 8.47L78.22 8.47Q78.01 8.69 77.81 9.20L77.81 9.20L75.52 15.22L75.28 15.22L72.70 9.02L72.70 9.02Q72.49 8.54 72.30 8.39L72.30 8.39L72.30 8.39Q72.10 8.23 71.89 8.23L71.89 8.23L71.89 7.94L71.89 7.94Q72.62 7.99 73.12 7.99L73.12 7.99L73.12 7.99Q74.20 7.99 74.94 7.94L74.94 7.94L74.94 8.23L74.94 8.23Q74.42 8.23 74.19 8.31L74.19 8.31L74.19 8.31Q73.95 8.39 73.95 8.71L73.95 8.71L73.95 8.71Q73.95 8.90 74.10 9.32L74.10 9.32L75.82 13.58L77.36 9.53L77.36 9.53Q77.52 9.11 77.52 8.88L77.52 8.88L77.52 8.88Q77.52 8.55 77.27 8.41L77.27 8.41L77.27 8.41Q77.03 8.26 76.48 8.22L76.48 8.22L76.48 7.94L76.48 7.94Q77.21 7.98 77.66 7.98L77.66 7.98Z"></path></g><!----><!----></svg>